<?xml version="1.0" encoding="utf-8"?>
<svg version="1.1" xmlns="http://www.w3.org/2000/svg" xmlns:xlink="http://www.w3.org/1999/xlink"
    viewBox="0 0 968 600">
<style>
  path {
   vector-effect: non-scaling-stroke;
  }
</style>
<g id="lines" fill="none" stroke-width="1" stroke="#1a1a1a">
<path d="M612.1251971668897 245.17822177163856 L612.5786375046972 245.1453084947088,612.5786375046972 245.1453084947088,621.6693797002466 244.48710366304792,621.6693797002466 244.48710366304792,621.9947688751815 244.46290183137984,621.9947688751815 244.46290183137984,622.5348177744766 244.4241910420981,622.5348177744766 244.4241910420981,622.5929345475121 245.02431957201372,622.5929345475121 245.02431957201372,623.4362752971753 253.7533192560134,623.4362752971753 253.7533192560134,623.5062906295931 254.4725143223293,623.5062906295931 254.4725143223293,623.9441090493001 254.43185079328507,623.9441090493001 254.43185079328507,630.3286979399747 253.83752989354397,630.3286979399747 253.83752989354397,633.5869605886882 253.53359050252894,633.5869605886882 253.53359050252894,643.500726946113 252.8289246294719,643.500726946113 252.8289246294719,647.8216847385377 252.47948539020805,647.8216847385377 252.47948539020805,647.8612656605633 252.95475998919406,647.8612656605633 252.95475998919406,647.9018178935587 253.42517803333033,647.9018178935587 253.42517803333033,647.8954234296733 253.74654031486892,647.8954234296733 253.74654031486892,647.8640177083115 254.03015300027312,647.8640177083115 254.03015300027312,647.8640177083115 254.37667830662713,647.8640177083115 254.37667830662713,647.8833629851298 254.66706993317575,647.8833629851298 254.66706993317575,648.1737040225653 256.00865273913547"/>
<path d="M647.8216847385377 252.47948539020805 L653.1997526365965 252.0342303708872,653.1997526365965 252.0342303708872,658.9631072194044 251.57929259533464,658.9631072194044 251.57929259533464,658.883864432772 251.02077866978806,658.883864432772 251.02077866978806,658.4580255150279 248.21468151323378"/>
<path d="M658.9631072194044 251.57929259533464 L663.951355648188 251.18630624758444,663.951355648188 251.18630624758444,665.5689121834862 257.83326039619556,665.5689121834862 257.83326039619556,666.8860908013256 265.0861810583646,666.8860908013256 265.0861810583646,675.6569479174369 265.20426616597234,675.6569479174369 265.20426616597234,680.2202477968655 265.12780578055623,680.2202477968655 265.12780578055623,680.2064066155435 264.6670502570065,680.2064066155435 264.6670502570065,680.0709087352349 263.90720177946895,680.0709087352349 263.90720177946895,679.7990226062283 262.7824337940839,679.7990226062283 262.7824337940839,679.3538384116657 261.11367095858844"/>
<path d="M680.2202477968655 265.12780578055623 L680.5465273401894 265.1219981503817,680.5465273401894 265.1219981503817,684.2250438685699 265.0600467225793,684.2250438685699 265.0600467225793,689.7524508282595 264.48023478045184,689.7524508282595 264.48023478045184,698.3583469646401 263.3419089127778,698.3583469646401 263.3419089127778,698.4330569667457 264.42603360476386,698.4330569667457 264.42603360476386,698.4827557113749 264.9022693968972,698.4827557113749 264.9022693968972,698.5998796258355 265.2478335101039,698.5998796258355 265.2478335101039,698.779572155277 265.415283474195,698.779572155277 265.415283474195,699.2054110730213 265.6495313031158,699.2054110730213 265.6495313031158,699.446862791636 265.70567510074375,699.446862791636 265.70567510074375,700.175912617168 265.6495313031158,700.175912617168 265.6495313031158,701.2165104363129 265.427870045514,701.2165104363129 265.427870045514,701.2958341655257 265.9215287281709,701.2958341655257 265.9215287281709,700.4174452783632 266.03284501245685,700.4174452783632 266.03284501245685,698.4579063390603 266.249669950854,698.4579063390603 266.249669950854,697.9942672360685 266.35420729399544,697.9942672360685 266.35420729399544,697.7473114219573 266.45971594810675,697.7473114219573 266.45971594810675,697.6292971391081 266.60104169423516,697.6292971391081 266.60104169423516,697.6108422306789 266.8430296574478,697.6108422306789 266.8430296574478,697.6790768263182 267.07727748636853,697.6790768263182 267.07727748636853,697.8707488577227 267.2137567954698,697.8707488577227 267.2137567954698,698.2975590864368 267.20698797214794,698.2975590864368 267.20698797214794,699.8109425202074 267.0337202600596,699.8109425202074 267.0337202600596,700.5344882502429 266.8923945139312,700.5344882502429 266.8923945139312,701.4211332806499 266.7259057429874,701.4211332806499 266.7259057429874,702.0995130505826 272.12811476577883,702.0995130505826 272.12811476577883,703.7668492730909 283.8511906324868,703.7668492730909 283.8511906324868,703.4627479969141 283.55208756067634,703.4627479969141 283.55208756067634,703.165041184623 283.3797810417354,703.165041184623 283.3797810417354,702.8442657367954 283.36430077315174,702.8442657367954 283.36430077315174,697.0154286060966 284.9024121653656,697.0154286060966 284.9024121653656,697.1979541258672 285.77262585186423,697.1979541258672 285.77262585186423,697.6173176371452 288.22352672809313,697.6173176371452 288.22352672809313,698.7786817868878 288.2690164585194"/>
<path d="M697.0154286060966 284.9024121653656 L694.084416811677 285.675818525192,694.084416811677 285.675818525192,695.8771330918903 293.32766469697964,695.8771330918903 293.32766469697964,695.4854519432561 293.3867123096948"/>
<path d="M695.8771330918903 293.32766469697964 L696.8347647656849 297.41736953597444,696.8347647656849 297.41736953597444,698.204475118483 303.20881119432994,698.204475118483 303.20881119432994,683.4554418100423 309.033176247438,683.4554418100423 309.033176247438,682.1189988579654 301.3619038562513,682.1189988579654 301.3619038562513,679.6349519948868 289.34927614227075,679.6349519948868 289.34927614227075,686.8058171157398 287.40268801590054,686.8058171157398 287.40268801590054,684.305257966172 276.9718199808462,684.305257966172 276.9718199808462,682.5411144169916 268.4430823596415,682.5411144169916 268.4430823596415,690.2898286223868 267.5177063043074,690.2898286223868 267.5177063043074,690.4585129608357 268.34627503296934,690.4585129608357 268.34627503296934,690.7322607692013 268.2823911010496,690.7322607692013 268.2823911010496,693.2226211535847 267.7141944192712,693.2226211535847 267.7141944192712,693.6181066035178 267.6396665379724,693.6181066035178 267.6396665379724,693.8530829156663 267.7267809905902,693.8530829156663 267.7267809905902,693.9895521069449 267.961028819511,693.9895521069449 267.961028819511,694.5203735520251 269.2590645169843"/>
<path d="M690.4585129608357 268.34627503296934 L691.8253903233048 275.06588526569755,691.8253903233048 275.06588526569755,700.9805628131946 273.3032189186173,700.9805628131946 273.3032189186173,701.375076952158 273.10962450091813,701.375076952158 273.10962450091813,701.6902673619081 272.78826221937953"/>
<path d="M682.5411144169916 268.4430823596415 L680.7594872703519 268.7479930616264,680.7594872703519 268.7479930616264,680.6553141688244 268.2688332187606,680.6553141688244 268.2688332187606,679.1050209181957 267.46155238885694,679.1050209181957 267.46155238885694,677.9676157723785 267.510927363163,677.9676157723785 267.510927363163,677.9188073961383 266.37357280645887,677.9188073961383 266.37357280645887,676.4034813404279 265.49175397743375"/>
<path d="M677.9188073961383 266.37357280645887 L678.8579841615037 266.17513195173257,678.8579841615037 266.17513195173257,680.5309054220893 265.3688224327989"/>
<path d="M677.9676157723785 267.510927363163 L676.4569843863562 268.9454524875602,676.4569843863562 268.9454524875602,676.0219180143974 269.5601102107347,676.0219180143974 269.5601102107347,668.2059405243327 271.41086232140276,668.2059405243327 271.41086232140276,670.5046288773116 280.6617291774785,670.5046288773116 280.6617291774785,672.5563614161796 291.23102926139654,672.5563614161796 291.23102926139654,674.9970230559334 303.3065695963268,674.9970230559334 303.3065695963268,677.66529523298 316.9532661320947,677.66529523298 316.9532661320947,677.6560677787654 317.14880317173373,677.6560677787654 317.14880317173373,677.6478116355208 317.3433689004029,677.6478116355208 317.3433689004029,677.5501139404597 317.66667380388134,677.5501139404597 317.66667380388134,666.0196814161261 319.61427371251193,666.0196814161261 319.61427371251193,665.8998054539176 318.95991365344054,665.8998054539176 318.95991365344054,663.8076016246348 307.13786524602324"/>
<path d="M666.0196814161261 319.61427371251193 L665.3486674210488 319.72753261873777,665.3486674210488 319.72753261873777,665.4196540644365 320.1060201266968,665.4196540644365 320.1060201266968,665.4380280302846 320.20474983966363,665.4380280302846 320.20474983966363,665.489669396854 320.47965107980605,665.489669396854 320.47965107980605,665.5108763530312 320.5900162887672,665.5108763530312 320.5900162887672,665.5892287712744 321.0052719640681,665.5892287712744 321.0052719640681,677.6911159162648 318.8892507803763,677.6911159162648 318.8892507803763,684.6204483759223 317.7353940550056,684.6204483759223 317.7353940550056,685.2122195843673 317.64827960238784,685.2122195843673 317.64827960238784,685.6536804202118 317.682154072465,685.6536804202118 317.682154072465,686.1974526782249 317.8360663899124,686.1974526782249 317.8360663899124,686.3034874591116 317.5660014689745,686.3034874591116 317.5660014689745,686.7892238866698 316.42086630668825,686.7892238866698 316.42086630668825,686.8758324481574 316.20984899846553,686.8758324481574 316.20984899846553,685.0167432516639 316.4412031301217"/>
<path d="M686.8758324481574 316.20984899846553 L687.6638894151141 316.11207036082345,687.6638894151141 316.11207036082345,687.5495984909828 316.28340556879436,687.5495984909828 316.28340556879436,687.4306938397441 316.4344241889772,687.4306938397441 316.4344241889772,687.3440852782564 316.5980091448337,687.3440852782564 316.5980091448337,686.8509830758427 317.65214461062243,686.8509830758427 317.65214461062243,686.7791060640661 317.8167008774489,686.7791060640661 317.8167008774489,686.6657055083239 318.0751707736829,686.6657055083239 318.0751707736829,686.496130801486 318.5097919614473,686.496130801486 318.5097919614473,686.8030650679916 319.03830654297394,686.8030650679916 319.03830654297394,686.8795558068756 319.61716740977664,686.8795558068756 319.61716740977664,686.7348304723522 320.1960282765793,686.7348304723522 320.1960282765793,687.3689346505713 320.47965107980605,687.3689346505713 320.47965107980605,687.6546619608995 320.6926110099687,687.6546619608995 320.6926110099687,688.2021575776307 321.13306006355276,688.2021575776307 321.13306006355276,688.9404348573772 321.71675724956,688.9404348573772 321.71675724956,689.1533947875397 321.82226590367134,689.1533947875397 321.82226590367134,690.072335907698 322.20558973083496"/>
<path d="M689.1533947875397 321.82226590367134 L690.228069433214 321.18338611318353,690.228069433214 321.18338611318353,690.1791801143928 321.1853287351235,690.1791801143928 321.1853287351235,690.0114670869141 321.191136365298,690.0114670869141 321.191136365298,689.8031208838588 321.18144349124367,689.8031208838588 321.18144349124367,689.5921035756361 321.1553192732809,689.5921035756361 321.1553192732809,689.3837573725807 321.11175192914936,689.3837573725807 321.11175192914936,689.1791345282436 321.0527043164342,689.1791345282436 321.0527043164342,688.9800967219836 320.97817643513537,688.9800967219836 320.97817643513537,688.7874533796094 320.8871767386377,688.7874533796094 320.8871767386377,688.6031471230604 320.78263939549635,688.6031471230604 320.78263939549635,688.427097009756 320.66260154812613,688.427097009756 320.66260154812613,688.2611647190554 320.52902605411214,688.2611647190554 320.52902605411214,688.1063215619284 320.3838150641038,688.1063215619284 320.3838150641038,687.9634579067642 320.22603773842184,687.9634579067642 320.22603773842184,687.832573753563 320.0576164633607,687.832573753563 320.0576164633607,687.7164211500726 319.87950231424526,687.7164211500726 319.87950231424526,687.6150810388739 319.69268683769064,687.6150810388739 319.69268683769064,687.5182737122016 319.4739192773535,687.5182737122016 319.4739192773535,687.4408116623479 319.2483727758719,687.4408116623479 319.2483727758719,687.3846375112522 319.01604733324587,687.3846375112522 319.01604733324587,687.3486990053639 318.7788855714152,687.3486990053639 318.7788855714152,687.3339674556528 318.54077273425986,687.3339674556528 318.54077273425986,687.3339674556528 318.4788111886347,687.3339674556528 318.4788111886347,687.3459469576155 318.2358417966297,687.3459469576155 318.2358417966297,687.3800237841448 317.99578633753435,687.3800237841448 317.99578633753435,687.4362788778213 317.75959588667365,687.4362788778213 317.75959588667365,687.5127696167053 317.5292130659875,687.5127696167053 317.5292130659875,687.6094960007966 317.3065804974157,687.6094960007966 317.3065804974157,687.7265389726762 317.0936205672532,687.7265389726762 317.0936205672532,687.8620368529847 316.8922758974396,687.8620368529847 316.8922758974396,688.0150992733336 316.7035177989451,688.0150992733336 316.7035177989451,688.1846739801715 316.52928889370946,688.1846739801715 316.52928889370946,688.3689802367205 316.3714913323822,688.3689802367205 316.3714913323822,688.5662373062022 316.2301655862538,688.5662373062022 316.2301655862538,688.7763642460357 316.1082053525888,688.7763642460357 316.1082053525888,688.9966899510538 316.0046393204174,688.9966899510538 316.0046393204174,689.2022031637802 315.9291198925034,689.2022031637802 315.9291198925034,689.4326466914019 315.8662072715536,689.4326466914019 315.8662072715536,689.6677039461308 315.82361123839206,689.6677039461308 315.82361123839206,689.9054323060274 315.8013520286639,689.9054323060274 315.8013520286639,690.1442129194746 315.8013520286639,690.1442129194746 315.8013520286639,691.7654928134908 315.0279254331922,691.7654928134908 315.0279254331922,694.3849566142973 313.453976713316,694.3849566142973 313.453976713316,695.8836084983567 312.28271733306696,695.8836084983567 312.28271733306696,697.5141158465874 310.88105489648655,697.5141158465874 310.88105489648655,699.8054384247109 308.53272850581396,699.8054384247109 308.53272850581396,701.0939633689369 306.8987608622527,701.0939633689369 306.8987608622527,701.5557407925695 306.12535450242615,701.5557407925695 306.12535450242615,702.2839002497124 305.0102288019824,702.2839002497124 305.0102288019824,702.5889728368589 305.18059269898345,702.5889728368589 305.18059269898345,703.2544017938588 305.55230126579806,703.2544017938588 305.55230126579806,703.8350838687302 305.87754879121644,703.8350838687302 305.87754879121644,704.1807086888724 306.07017189794567,704.1807086888724 306.07017189794567,704.7116110765336 305.1041221957447,704.7116110765336 305.1041221957447,705.5254887267749 303.3143198484413,705.5254887267749 303.3143198484413,706.0324321105104 301.8313708250628,706.0324321105104 301.8313708250628,706.6047770995564 299.887656160312,706.6047770995564 299.887656160312,706.7642339837905 299.04358692742125,706.7642339837905 299.04358692742125,706.4904861754248 298.9903469448806,706.4904861754248 298.9903469448806,705.7365869775782 298.84418487954764,705.7365869775782 298.84418487954764,705.077552484464 298.71641701570815,705.077552484464 298.71641701570815,704.7586387159955 298.65445547008306,704.7586387159955 298.65445547008306,704.4258837662052 299.91380061391993,704.4258837662052 299.91380061391993,703.7245163033169 301.9097839502415,703.7245163033169 301.9097839502415,702.7511817688414 304.09741908232223"/>
<path d="M704.7586387159955 298.65445547008306 L705.0609592553939 296.7785099811319,705.0609592553939 296.7785099811319,705.1300842194223 295.15617783356487,705.1300842194223 295.15617783356487,705.0582072076456 292.30451000400353,705.0582072076456 292.30451000400353,704.6886233835779 289.6435428948767,704.6886233835779 289.6435428948767,705.0471180740722 289.77808969986063,705.0471180740722 289.77808969986063,705.8618860927024 290.06849144423194,705.8618860927024 290.06849144423194,705.7458144317928 289.50513108165813,705.7458144317928 289.50513108165813,705.7126279736526 289.34443982306624,705.7126279736526 289.34443982306624,705.698786792331 289.27766219388184,705.698786792331 289.27766219388184,704.8046950444875 284.56943462347795,704.8046950444875 284.56943462347795,704.5273048199847 282.60056705173434,704.5273048199847 282.60056705173434,703.4221957639185 272.344939704176,703.4221957639185 272.344939704176,703.0617584514845 269.9492214324277,703.0617584514845 269.9492214324277,702.5898632052481 267.3608901717728,702.5898632052481 267.3608901717728,702.2313685147539 265.1849107713315,702.2313685147539 265.1849107713315,702.1419269629372 264.41732215950213,702.1419269629372 264.41732215950213,702.8249204599772 264.30696706836363,702.8249204599772 264.30696706836363,703.226800373796 264.2421118254739,703.226800373796 264.2421118254739,703.7936412673455 264.1520935577688,703.7936412673455 264.1520935577688,703.706951763277 263.62068527897753,703.706951763277 263.62068527897753,703.7834425021608 263.11831515105877,703.7834425021608 263.11831515105877,703.9687200696798 262.73693394583506,703.9687200696798 262.73693394583506,704.1871840953387 262.3981487737729,704.1871840953387 262.3981487737729,704.0516862150301 262.06033491268073,704.0516862150301 262.06033491268073,703.9217733727986 261.76606816007484,703.9217733727986 261.76606816007484,703.7548697711281 261.4243791729254,703.7548697711281 261.4243791729254,703.678379032244 261.2124006715554,703.678379032244 261.2124006715554,703.459024638196 260.6771172667069,703.459024638196 260.6771172667069,703.1383301329491 260.4922342942695,703.1383301329491 260.4922342942695,703.0083363481369 260.36059130437286,703.0083363481369 260.36059130437286,702.8110792786554 259.665598069725,702.8110792786554 259.665598069725,702.4839093669423 259.71883805226554,702.4839093669423 259.71883805226554,702.1898449707883 259.767231597779,702.1898449707883 259.767231597779,701.608272527528 259.8611249915414,701.608272527528 259.8611249915414,701.6608042624863 260.23572725562053"/>
<path d="M701.608272527528 259.8611249915414 L699.9814885380154 248.27760425200617,699.9814885380154 248.27760425200617,699.9206197172314 247.951405651263,699.9206197172314 247.951405651263,699.8266453808884 247.46839091798515,699.8266453808884 247.46839091798515,698.7113375596376 240.00259126823434,698.7113375596376 240.00259126823434,698.82473811538 239.99291862982523,698.82473811538 239.99291862982523,699.5279672576272 239.92418826087834,699.5279672576272 239.92418826087834,699.8090808408483 239.91451562246917,699.8090808408483 239.91451562246917,700.4349288758224 239.85449669878403"/>
<path d="M699.8090808408483 239.91451562246917 L699.776865693678 239.13240793520347,699.776865693678 239.13240793520347,699.743679235538 238.66005738694994,699.743679235538 238.66005738694994,699.9501637592341 238.37741601251568,699.9501637592341 238.37741601251568,700.0451094065473 238.1935043510483,700.0451094065473 238.1935043510483,700.117876786713 237.99990993334922,700.117876786713 237.99990993334922,700.1676564739232 237.7995466923282,700.1676564739232 237.7995466923282,700.193477157208 237.59530832525,700.193477157208 237.59530832525,700.195338836567 237.3881661430845,700.195338836567 237.3881661430845,700.1741318803896 237.18296658285897,700.1741318803896 237.18296658285897,700.1289659202868 236.98163203086798,700.1289659202868 236.98163203086798,700.0607313246473 236.78707642002152,700.0607313246473 236.78707642002152,699.9703994044415 236.60123225443687,699.9703994044415 236.60123225443687,699.8598318390284 236.42700334920124,699.8598318390284 236.42700334920124,699.728947685827 236.26729351940185,699.728947685827 236.26729351940185,699.5980635326255 236.13758303362255,699.5980635326255 236.13758303362255,699.4542285664915 236.0233629342494,699.4542285664915 236.0233629342494,699.2993854093643 235.92367202813514,699.2993854093643 235.92367202813514,699.1178312005638 235.83365376043008,699.1178312005638 235.83365376043008,698.9279399059376 235.76396219833583,698.9279399059376 235.76396219833583,698.7021910480039 235.71265471991245,698.7021910480039 235.71265471991245,698.4717475203822 235.69039551018435,698.4717475203822 235.69039551018435,698.2404136243712 235.6981356444762,698.2404136243712 235.6981356444762,698.0118317761086 235.73492404746318,698.0118317761086 235.73492404746318,697.7906157027013 235.8026729876176,697.7906157027013 235.8026729876176,697.5795174518977 235.89753769234983,697.5795174518977 235.89753769234983,697.3822603824161 236.01949792601474,697.3822603824161 236.01949792601474,697.2228034981819 236.1462944788843,697.2228034981819 236.1462944788843,697.0790494746286 236.29148523324736,697.0790494746286 236.29148523324736,696.9426612259307 236.4666854494529,696.9426612259307 236.4666854494529,696.8292606701884 236.65833724521212,696.8292606701884 236.65833724521212,696.7407904293419 236.86160430132034,696.7407904293419 236.86160430132034,696.6771695608098 237.0755254246303,696.6771695608098 237.0755254246303,696.6412310549216 237.29428286714486,696.6412310549216 237.29428286714486,696.633865280066 237.516905317894,696.633865280066 237.516905317894,696.6532105568842 237.7375952645258,696.6532105568842 237.7375952645258,696.4080354795516 237.7434028947003,696.4080354795516 237.7434028947003,696.0937354381903 237.7617970961938,696.0937354381903 237.7617970961938,696.0403133348428 236.969045459549,696.0403133348428 236.969045459549,696.3130898322385 236.21212103274394,696.3130898322385 236.21212103274394,696.3804340594885 235.61973263712014,696.3804340594885 235.61973263712014,696.3214269180639 235.0476810649298,696.3214269180639 235.0476810649298,696.9067227200424 234.94604753687565,696.9067227200424 234.94604753687565,697.3149970977468 234.94217241081842,697.3149970977468 234.94217241081842,698.0919649311298 234.83085612653258,698.0919649311298 234.83085612653258,697.2615749943993 228.1568873915696,697.2615749943993 228.1568873915696,696.4863878977945 228.25368460041915,696.4863878977945 228.25368460041915,695.9398635920334 228.34757799418145,695.9398635920334 228.34757799418145,695.6513032913757 228.37757733820138,695.6513032913757 228.37757733820138,695.423692754083 227.11925409444757,695.423692754083 227.11925409444757,695.2439192820607 226.04291000804375,695.2439192820607 226.04291000804375,695.5416260943518 226.009025420144,695.5416260943518 226.009025420144,696.1840673583962 225.9606318746305,696.1840673583962 225.9606318746305,696.8891581800024 225.8619021616637,696.8891581800024 225.8619021616637,696.4145108860179 223.0026156116818,696.4145108860179 223.0026156116818,695.793276578151 223.10521033288327,695.793276578151 223.10521033288327,695.0964418997892 223.2107189869946,695.0964418997892 223.2107189869946,695.0190607925161 222.59027386929077,695.0190607925161 222.59027386929077,694.4844350461368 218.28391609488312,694.4844350461368 218.28391609488312,695.122262583074 218.1890615079734,695.122262583074 218.1890615079734,695.6615020565604 218.12130244999648,695.6615020565604 218.12130244999648,696.3048336889938 218.03709181246592,696.3048336889938 218.03709181246592,696.5960650948184 217.9809581326606,696.5960650948184 217.9809581326606,697.1426703431606 217.92868946108993,697.1426703431606 217.92868946108993,697.0117861899591 216.92396944089768,697.0117861899591 216.92396944089768,696.9334337717161 216.32287971783475,696.9334337717161 216.32287971783475,696.3518613284558 216.37998470860998,696.3518613284558 216.37998470860998,696.0790038884792 216.43419600212056,696.0790038884792 216.43419600212056,695.4550175328642 216.5155028245639,695.4550175328642 216.5155028245639,694.7969543507198 216.59874215112447,694.7969543507198 216.59874215112447,694.2531011501259 216.67036621733604,694.2531011501259 216.67036621733604,694.3360672954763 217.2995227803017,694.3360672954763 217.2995227803017,694.0272713496113 217.34695513266783,694.0272713496113 217.34695513266783,694.1535417757055 218.31682937181287"/>
<path d="M694.0272713496113 217.34695513266783 L693.9452765152311 216.71199093952768"/>
<path d="M694.0272713496113 217.34695513266783 L693.6282244261216 217.38954104800678,693.6282244261216 217.38954104800678,685.8555512168006 218.2103595245542,685.8555512168006 218.2103595245542,683.4609459055389 218.46395263029325,683.4609459055389 218.46395263029325,684.4379228561515 219.37768307181045,684.4379228561515 219.37768307181045,690.616108165711 218.83176583540538,690.616108165711 218.83176583540538,693.66416293201 218.5626823432601,693.66416293201 218.5626823432601,694.1102374949617 222.74610857303284,694.1102374949617 222.74610857303284,694.5296010062397 226.67013406689207,694.5296010062397 226.67013406689207,691.0907554596955 227.08344712025308,691.0907554596955 227.08344712025308,690.8871039263282 225.38664779832285,690.8871039263282 225.38664779832285,691.6603484009933 225.19692850668096,691.6603484009933 225.19692850668096,692.342451529644 224.78458676428994,692.342451529644 224.78458676428994,692.8438098753024 224.23092939359304,692.8438098753024 224.23092939359304,693.1691990502371 223.55917679746588,693.1691990502371 223.55917679746588,693.294579107942 222.82257907627158,693.294579107942 222.82257907627158,693.1719510979852 221.95433836518063,693.1719510979852 221.95433836518063,692.7719328635255 221.17417329985486,692.7719328635255 221.17417329985486,692.1396903646659 220.56727594661737,692.1396903646659 220.56727594661737,691.408778859775 220.21881813614607,691.408778859775 220.21881813614607,690.6059903431072 220.10847316283017,690.6059903431072 220.10847316283017,689.9119077124938 220.21301050597157,689.9119077124938 220.21301050597157,689.2704377594192 220.49662319137576,689.2704377594192 220.49662319137576,688.7256941904363 220.93800308463938,688.7256941904363 220.93800308463938,688.3155581333729 221.5081120348898,688.3155581333729 221.5081120348898,688.0952324283547 222.0685483467312,688.0952324283547 222.0685483467312,688.0067621875082 222.6638304396196,688.0067621875082 222.6638304396196,688.0546801953593 223.2649201626826,688.0546801953593 223.2649201626826,688.2971032249438 223.9599032795079,688.2971032249438 223.9599032795079,688.7210804633291 224.5619643135408,688.7210804633291 224.5619643135408,689.3478188666924 225.05464156740516,689.3478188666924 225.05464156740516,690.0916811845161 225.33824413498678"/>
<path d="M688.7210804633291 224.5619643135408 L685.5421415438287 227.74939208620572,685.5421415438287 227.74939208620572,685.3753188847389 227.99524505765294,685.3753188847389 227.99524505765294,684.9706869231718 228.74830447622347,684.9706869231718 228.74830447622347,674.4384383056286 229.75206330326833,674.4384383056286 229.75206330326833,660.0590697638365 230.9600503795688,660.0590697638365 230.9600503795688,650.8936985087622 232.0606064154632,650.8936985087622 232.0606064154632,641.4932699989587 233.06435512468545,641.4932699989587 233.06435512468545,637.4018653657666 233.43508226270748,637.4018653657666 233.43508226270748,637.3271553636608 232.73912783491227,637.3271553636608 232.73912783491227,636.8451422948209 227.50352899693593"/>
<path d="M637.4018653657666 233.43508226270748 L631.3453367551941 233.8793659710584,631.3453367551941 233.8793659710584,624.6003914946663 234.41077424984974,624.6003914946663 234.41077424984974,624.0058682384731 234.4572352912459,624.0058682384731 234.4572352912459,621.5588121348335 234.64984828015244,621.5588121348335 234.64984828015244,611.9196030115829 235.34774532988757,611.9196030115829 235.34774532988757,611.4634106260273 235.38064848899484,611.4634106260273 235.38064848899484,610.5600914239694 235.44259991679723,610.5600914239694 235.44259991679723,610.6256549144413 236.12209264721622,610.6256549144413 236.12209264721622,610.9113822247698 239.88838128668385,610.9113822247698 239.88838128668385,609.745323405339 239.98033205850624,609.745323405339 239.98033205850624,608.9056250718131 240.04711980551323,608.9056250718131 240.04711980551323,608.0005251329768 240.11875398954737,608.0005251329768 240.11875398954737,607.9535784360955 239.42376075489952,607.9535784360955 239.42376075489952,606.0797576898913 239.55249992970892,606.0797576898913 239.55249992970892,606.1286470087122 240.26780975214504,606.1286470087122 240.26780975214504,605.1396905561365 240.34621275950104,605.1396905561365 240.34621275950104,604.2261725888941 240.41881825450525,604.2261725888941 240.41881825450525,602.9589355434263 240.51948047158933,602.9589355434263 240.51948047158933,602.6712656111581 236.72416379907176,602.6712656111581 236.72416379907176,602.5579459979966 235.98368083399765,602.5579459979966 235.98368083399765,606.3093108491237 235.73007761043604,606.3093108491237 235.73007761043604,606.360952215693 236.44538743287217,606.360952215693 236.44538743287217,606.450312824929 237.67371133260605,606.450312824929 237.67371133260605,606.513933693461 238.54776979169415,606.513933693461 238.54776979169415,605.0022500538879 238.65908607597996,605.0022500538879 238.65908607597996,604.0345005574898 237.8547191789862"/>
<path d="M606.513933693461 238.54776979169415 L607.2678328913075 238.49259730503616,607.2678328913075 238.49259730503616,607.2051833337455 237.61757765280072,607.2051833337455 237.61757765280072,607.1166321503179 236.3882824420969,607.1166321503179 236.3882824420969,607.0651526689103 235.67878024983528"/>
<path d="M607.2051833337455 237.61757765280072 L609.5554321107128 237.44140612562518,609.5554321107128 237.44140612562518,608.7970001283397 238.38128102075027,608.7970001283397 238.38128102075027,607.2678328913075 238.49259730503616"/>
<path d="M606.450312824929 237.67371133260605 L604.0345005574898 237.8547191789862"/>
<path d="M606.450312824929 237.67371133260605 L607.2051833337455 237.61757765280072"/>
<path d="M606.360952215693 236.44538743287217 L607.1166321503179 236.3882824420969"/>
<path d="M606.3093108491237 235.73007761043604 L607.0651526689103 235.67878024983528"/>
<path d="M602.5579459979966 235.98368083399765 L601.6648255611232 236.04466095083015,601.6648255611232 236.04466095083015,601.7035161147597 236.50443504558731,601.7035161147597 236.50443504558731,602.441874337087 245.29534568609895,602.441874337087 245.29534568609895,602.4888210339682 245.91482961065543,602.4888210339682 245.91482961065543,603.3542591081979 245.85191698970567,603.3542591081979 245.85191698970567,603.2935521725758 244.9430127495704,603.2935521725758 244.9430127495704,604.4649532023413 243.60820888475524,604.4649532023413 243.60820888475524,605.3248871810746 242.62670926743849,605.3248871810746 242.62670926743849,606.2207596656963 241.6055174320475,606.2207596656963 241.6055174320475,608.0936091009308 241.47677825723807,608.0936091009308 241.47677825723807,609.0560163869943 242.35083671632617,609.0560163869943 242.35083671632617,609.9858847555644 243.1948958313943,609.9858847555644 243.1948958313943,611.2477795906973 244.34094159771493,611.2477795906973 244.34094159771493,611.2615398294386 245.2788839887227,611.2615398294386 245.2788839887227,610.2338928232263 245.35342198784417,610.2338928232263 245.35342198784417,610.1278580423394 244.4270948571854,610.1278580423394 244.4270948571854,604.5986703458717 244.84524422975093,604.5986703458717 244.84524422975093,604.6962870983522 245.75511978085612,604.6962870983522 245.75511978085612,608.1379656352254 245.50539168335166,608.1379656352254 245.50539168335166,608.1637053759293 245.81707120865852,608.1637053759293 245.81707120865852,608.4301683520201 249.04034642680838,608.4301683520201 249.04034642680838,606.21428425923 249.17296072767502,606.21428425923 249.17296072767502,606.6706385299469 255.48983103166313,606.6706385299469 255.48983103166313,606.7166139158583 255.9263847235448,606.7166139158583 255.9263847235448,604.0354718684596 256.12094033439126,604.0354718684596 256.12094033439126,603.3809701598717 256.1683726867574,603.3809701598717 256.1683726867574,603.437306196129 256.8217411992137,603.437306196129 256.8217411992137,604.2216398043676 265.98250884500345,604.2216398043676 265.98250884500345,605.2724363886971 277.5013058733428,605.2724363886971 277.5013058733428,601.7763644375062 278.09370438678917,601.7763644375062 278.09370438678917,595.598179127947 279.1400693648182,595.598179127947 279.1400693648182,587.1001794518124 280.09450380667005,587.1001794518124 280.09450380667005,586.2909155286785 280.34326059320455,586.2909155286785 280.34326059320455,587.889207729739 291.8321493379273,587.889207729739 291.8321493379273,588.8145433137828 297.934268857152,588.8145433137828 297.934268857152,589.4201557035495 301.9291292270597,589.4201557035495 301.9291292270597,581.357141456793 304.013198326969,581.357141456793 304.013198326969,579.1062901690844 294.116571561035,579.1062901690844 294.116571561035,578.3439729428314 289.3289595544826,578.3439729428314 289.3289595544826,577.8453666449213 289.4760929307855,577.8453666449213 289.4760929307855,574.8046776534777 290.371459524277,574.8046776534777 290.371459524277,574.6444113434353 290.6192652354867,574.6444113434353 290.6192652354867,574.3853950847806 291.0142043229993,574.3853950847806 291.0142043229993,573.7788113840437 291.69468860003354,573.7788113840437 291.69468860003354,573.4331865639016 291.7063038603826,573.4331865639016 291.7063038603826,573.1861498072097 291.55819917310964,573.1861498072097 291.55819917310964,572.6174472343012 290.80415832574664"/>
<path d="M578.3439729428314 289.3289595544826 L577.2177378731689 282.2550029385277,577.2177378731689 282.2550029385277,569.1160330727757 283.7582685496944,569.1160330727757 283.7582685496944,570.2008255410535 281.4777315704665,570.2008255410535 281.4777315704665,570.3427988278287 281.2057240275888,570.3427988278287 281.2057240275888,570.5419175766696 280.94533174506,570.5419175766696 280.94533174506,576.0656011776408 275.75025478661155,576.0656011776408 275.75025478661155,581.1700022099151 269.77693514913193,581.1700022099151 269.77693514913193,581.041789161881 267.56997497587815,581.041789161881 267.56997497587815,584.6816151366248 267.43348554895425,584.6816151366248 267.43348554895425,585.4806802945744 273.842377449523,585.4806802945744 273.842377449523,585.7324117209545 273.8026953492713,585.7324117209545 273.8026953492713,589.6385387866276 273.1773936767177"/>
<path d="M584.6816151366248 267.43348554895425 L583.5783677599178 258.6289158479276,583.5783677599178 258.6289158479276,583.4410891428308 257.53125350929787,583.4410891428308 257.53125350929787,573.8581351132568 258.37143749830875,573.8581351132568 258.37143749830875,561.407871100376 259.60946438991965,561.407871100376 259.60946438991965,550.0404569338331 261.5376380791511,550.0404569338331 261.5376380791511,545.7776968570248 262.0516234674189,545.7776968570248 262.0516234674189,545.6035084230796 260.2095929198352,545.6035084230796 260.2095929198352,545.471733901489 258.31433250753355,545.471733901489 258.31433250753355,545.3739552638469 255.93993248801112,545.3739552638469 255.93993248801112,545.3472442121732 253.9498174887998,545.3472442121732 253.9498174887998,545.902024661179 253.85882791012472,545.902024661179 253.85882791012472,546.0486926176421 253.35162146300146,546.0486926176421 253.35162146300146,546.3140223976015 252.89571237647897,546.3140223976015 252.89571237647897,546.507637050946 252.63533021177278,546.507637050946 252.63533021177278,546.6725980306766 251.79902134881908,546.6725980306766 251.79902134881908,546.2865019201196 250.60649430545706,546.2865019201196 250.60649430545706,545.8513546055797 249.40333343053857,545.8513546055797 249.40333343053857,545.4550597298382 249.27362294475918,545.4550597298382 249.27362294475918,544.3600684963757 248.91548237805617,544.3600684963757 248.91548237805617,543.8485113855328 249.08680746820454,543.8485113855328 249.08680746820454,543.7609315130752 249.8408483155676,543.7609315130752 249.8408483155676,543.6623434496248 250.4264577700469,543.6623434496248 250.4264577700469,543.5969418443145 250.7333009761492,543.5969418443145 250.7333009761492,543.5508045732419 251.03336524110705,543.5508045732419 251.03336524110705,543.55355662099 251.19985401205085,543.55355662099 251.19985401205085,543.6992532664831 252.1300562687668,543.6992532664831 252.1300562687668,543.7249930071869 252.20845927612285,543.7249930071869 252.20845927612285,543.8716609636501 252.45722618047998,543.8716609636501 252.45722618047998,543.9674969793523 252.50368722187613,543.9674969793523 252.50368722187613,544.1287346003649 252.54724444818504,544.1287346003649 252.54724444818504,544.3260726124273 252.52885024669146,544.3260726124273 252.52885024669146,544.5361995522609 252.5259464316042,544.5361995522609 252.5259464316042,544.6412630221777 252.60919587598744,544.6412630221777 252.60919587598744,544.692904388747 252.8047227978039,544.692904388747 252.8047227978039,544.676230217096 253.26353569941367,544.676230217096 253.26353569941367,544.6292835202148 253.97110538755797,544.6292835202148 253.97110538755797,544.2485296199926 253.9807881437897,544.2485296199926 253.9807881437897,545.3694224793205 266.1983725902533,545.3694224793205 266.1983725902533,545.4043896742389 266.4422930575832,545.4043896742389 266.4422930575832,544.3204066317692 266.6049168202924,544.3204066317692 266.6049168202924,544.1250112416467 266.7278483649273,544.1250112416467 266.7278483649273,543.9148843018132 266.82753927104153,543.9148843018132 266.82753927104153,543.5904664378482 266.91659634559926,543.5904664378482 266.91659634559926,542.667882901553 267.1353537881137,542.667882901553 267.1353537881137,541.2207914414819 267.4789752793805"/>
<path d="M542.667882901553 267.1353537881137 L542.9573335705993 268.3569189823484"/>
<path d="M544.3204066317692 266.6049168202924 L544.5010704721809 267.56125341279375,544.5010704721809 267.56125341279375,545.609012518576 271.24242081069644,545.609012518576 271.24242081069644,540.2271403192179 273.1473842148751,540.2271403192179 273.1473842148751,535.1735712277047 274.4976885839191,535.1735712277047 274.4976885839191,532.2287182519634 275.28948914523926,532.2287182519634 275.28948914523926,532.4378738808269 275.98353130456235,532.4378738808269 275.98353130456235,532.703365545948 276.8304942347177"/>
<path d="M532.2287182519634 275.28948914523926 L531.3595568190156 275.52373697416,531.3595568190156 275.52373697416,531.0129606879034 275.61376535968765,531.0129606879034 275.61376535968765,531.2203355799886 276.3668348960808,531.2203355799886 276.3668348960808,531.4489174282515 277.2254333222304"/>
<path d="M531.0129606879034 275.61376535968765 L527.6948005293759 276.4723435501921,527.6948005293759 276.4723435501921,527.8626754420166 277.66875583743393,527.8626754420166 277.66875583743393,528.9953859181455 289.24184510186467,528.9953859181455 289.24184510186467,520.8365356556866 290.4527663467203,520.8365356556866 290.4527663467203,520.9139167629598 293.6896803897399,520.9139167629598 293.6896803897399,521.4032956066554 298.5441104967672,521.4032956066554 298.5441104967672,519.6557452865449 300.0328671503202,519.6557452865449 300.0328671503202,516.9184290880507 301.77910215349215,516.9184290880507 301.77910215349215,515.2168541538516 302.6744889826287,515.2168541538516 302.6744889826287,515.369997516781 302.84193894671995,515.369997516781 302.84193894671995,515.492544584157 303.0336109781244,515.492544584157 303.0336109781244,515.5801244566146 303.2426856644072,515.5801244566146 303.2426856644072,515.629823201244 303.4643671576541,515.629823201244 303.4643671576541,515.6408313922368 303.6908647344605,515.6408313922368 303.6908647344605,515.6113682928147 303.91641123594206,515.6113682928147 303.91641123594206,515.5441859507263 304.13323617433923,515.5441859507263 304.13323617433923,515.4546634563287 304.3103790124847,515.4546634563287 304.3103790124847,515.3395631063892 304.4729926573714,515.3395631063892 304.4729926573714,515.2160447280434 304.60173183218075,515.2160447280434 304.60173183218075,515.0768234890163 304.7120970411419,515.0768234890163 304.7120970411419,514.9238420112486 304.8030765019944,514.9238420112486 304.8030765019944,514.7579097205478 304.87181698876384,514.7579097205478 304.87181698876384,514.5846925975727 304.91827803016,514.5846925975727 304.91827803016,514.0499859086126 306.30152602960175,514.0499859086126 306.30152602960175,513.6978856820039 304.7740383511217,513.6978856820039 304.7740383511217,513.8630085468961 304.85245147630036,513.8630085468961 304.85245147630036,514.0380064066497 304.906662769811,514.0380064066497 304.906662769811,514.2186702470613 304.9366722316535,514.2186702470613 304.9366722316535,514.402086135221 304.94053723988816"/>
<path d="M513.6978856820039 304.7740383511217 L513.549598873924 304.6762799491248,513.549598873924 304.6762799491248,513.4158817303937 304.5601071099892,513.4158817303937 304.5601071099892,513.299810069484 304.4265316159752,513.299810069484 304.4265316159752,513.1864904563226 304.247466391535,513.1864904563226 304.247466391535,513.1024720574217 304.0538517381907,513.1024720574217 304.0538517381907,513.0518020018224 303.8476707491725,513.0518020018224 303.8476707491725,513.034318404363 303.63665344094983,513.034318404363 303.63665344094983,513.0518020018224 303.42563613272716,513.0518020018224 303.42563613272716,513.1154228703542 303.1855806736319,513.1154228703542 303.1855806736319,513.2232383880192 302.9619767940902,513.2232383880192 302.9619767940902,513.3329965276241 302.80903578761274,513.3329965276241 302.80903578761274,513.4629903124363 302.6725463606889,513.4629903124363 302.6725463606889,513.6112771205162 302.5563937571984,513.6112771205162 302.5563937571984,513.7744573634687 302.46250036343616,513.7744573634687 302.46250036343616,513.950426534192 302.39378011231184,513.950426534192 302.39378011231184,514.1340043075136 302.35021276818037,514.1340043075136 302.35021276818037,514.3219529801999 302.33473249959667,514.3219529801999 302.33473249959667,514.5099016528861 302.3463477599457,514.5099016528861 302.3463477599457,514.7035163062303 302.38700117116736,514.7035163062303 302.38700117116736,514.88887481633 302.45669273326166,514.88887481633 302.45669273326166,515.0611206283355 302.55347982428856"/>
<path d="M514.5099016528861 302.3463477599457 L514.0214941201604 301.1489439260887,514.0214941201604 301.1489439260887,513.5541316584506 300.13643318249166,513.5541316584506 300.13643318249166,512.847179157485 294.97516998718464,512.847179157485 294.97516998718464,505.3188715996887 295.5637034923964,505.3188715996887 295.5637034923964,505.86992868997635 304.21067798854796,505.86992868997635 304.21067798854796,497.9194246305729 305.3722647303878,497.9194246305729 305.3722647303878,497.6604083719181 303.8757578247204,497.6604083719181 303.8757578247204,497.561820308468 303.78186443095814,497.561820308468 303.78186443095814,497.44380602561836 303.74023970876647,497.44380602561836 303.74023970876647,496.161675545278 303.82057522023985"/>
<path d="M497.9194246305729 305.3722647303878 L496.20230872085443 305.6413583403558,496.20230872085443 305.6413583403558,495.37928455897946 305.40806158675974,495.37928455897946 305.40806158675974,494.65938124508125 305.0295943144459,494.65938124508125 305.0295943144459,494.01977297136597 304.56979998404347,494.01977297136597 304.56979998404347,493.34503561757066 303.94544938681463,493.34503561757066 303.94544938681463,493.27963401226026 303.34238668834394,493.27963401226026 303.34238668834394,493.6030805652555 302.22728122354545,493.6030805652555 302.22728122354545,493.1441361319517 296.7485005192893,493.1441361319517 296.7485005192893,492.66657490505725 291.5291610222371,492.66657490505725 291.5291610222371,493.73857844556403 290.79060044345766,493.73857844556403 290.79060044345766,494.63720297793384 290.1091448554535,494.63720297793384 290.1091448554535,494.8916864520622 289.9097428075799,494.8916864520622 289.9097428075799,494.9376618379732 289.85263781680464,494.9376618379732 289.85263781680464,494.9598401051205 289.7964839013542,494.9598401051205 289.7964839013542,494.88245899784744 287.68920451639195,494.88245899784744 287.68920451639195,492.3228927068548 287.85762579145313,492.3228927068548 287.85762579145313,492.2574911015447 287.1897280857379,492.2574911015447 287.1897280857379,491.4786615888025 287.21295860643596,491.4786615888025 287.21295860643596,490.8545942906065 287.22748779969487,490.8545942906065 287.22748779969487,490.45554736711676 287.238131749074,490.45554736711676 287.238131749074,489.6674904001601 287.25555463959756,489.6674904001601 287.25555463959756,489.27022421344867 287.26522727800665,489.27022421344867 287.26522727800665,489.59561338838336 290.9987240544157,489.59561338838336 290.9987240544157,490.74402672519324 303.19719593398094,490.74402672519324 303.19719593398094,490.8269119279628 304.2067927446682,490.8269119279628 304.2067927446682,490.8850287009986 305.57456047552614,490.8850287009986 305.57456047552614,490.4278650044732 305.6268291470969,490.4278650044732 305.6268291470969,490.5052461117462 306.7177530158726,490.5052461117462 306.7177530158726,490.6287644900921 308.44367143125623,490.6287644900921 308.44367143125623,490.66292225920205 308.9276675933266,490.66292225920205 308.9276675933266,491.1495490551495 308.75052475518106,491.1495490551495 308.75052475518106,492.71093143935184 308.18425045969747,492.71093143935184 308.18425045969747,493.72206615907476 307.8164271367627,493.72206615907476 307.8164271367627,494.407811703863 307.567650114583,494.407811703863 307.567650114583,494.37090188700455 307.0265489617373,494.37090188700455 307.0265489617373,494.29902487522793 305.9598269246297,494.29902487522793 305.9598269246297,494.24738350865863 305.1941505812724,494.24738350865863 305.1941505812724,493.49057037790226 305.2802937229202,493.49057037790226 305.2802937229202,492.42423281805344 305.4003315702905,492.42423281805344 305.4003315702905,492.5016139253265 306.28699683634284,492.5016139253265 306.28699683634284,493.5791215613299 306.0856521665292,493.5791215613299 306.0856521665292,493.6759288880019 307.2298160178456,493.6759288880019 307.2298160178456,492.65378597728613 307.5598998624686,492.65378597728613 307.5598998624686,491.0996884253584 308.21425992154,491.0996884253584 308.21425992154,490.9282520391614 306.59190753832786"/>
<path d="M492.5016139253265 306.28699683634284 L492.65378597728613 307.5598998624686"/>
<path d="M492.5016139253265 306.28699683634284 L490.9282520391614 306.59190753832786"/>
<path d="M492.42423281805344 305.4003315702905 L492.1726632768352 302.5109040267722"/>
<path d="M493.49057037790226 305.2802937229202 L493.5791215613299 306.0856521665292,493.5791215613299 306.0856521665292,494.29902487522793 305.9598269246297,494.29902487522793 305.9598269246297,494.67233205801386 305.89497168174"/>
<path d="M494.37090188700455 307.0265489617373 L496.3590135573404 306.4457454729948,496.3590135573404 306.4457454729948,498.4494366498448 306.05566294033196,498.4494366498448 306.05566294033196,505.8773754074128 305.0750840448721,505.8773754074128 305.0750840448721,511.41400982131677 304.330695600273,511.41400982131677 304.330695600273,512.5357121064528 304.3278019030083"/>
<path d="M505.8773754074128 305.0750840448721 L506.20276458234747 311.20533111093505,506.20276458234747 311.20533111093505,506.56214964123086 317.61149119940075,506.56214964123086 317.61149119940075,506.600030769059 319.1234986092971,506.600030769059 319.1234986092971,506.44980133903937 320.0682604127398,506.44980133903937 320.0682604127398,506.1631027177411 320.6122754984953,506.1631027177411 320.6122754984953,503.2726431563171 323.7234047709058,503.2726431563171 323.7234047709058,499.98216536043356 327.11332052733854,499.98216536043356 327.11332052733854,496.15811407172146 330.8836664136702,496.15811407172146 330.8836664136702,495.4778726224299 324.28097773895036,495.4778726224299 324.28097773895036,495.3496595743958 322.92674765473606,495.3496595743958 322.92674765473606,495.0012827065053 317.6560298545022,495.0012827065053 317.6560298545022,494.3063097075027 316.376347887232,494.3063097075027 316.376347887232,494.08420326570626 317.656980929827,494.08420326570626 317.656980929827,494.94510855540955 326.58383463484193,494.94510855540955 326.58383463484193,496.2317718202765 339.85026292587247,496.2317718202765 339.85026292587247,496.774734652481 345.71153779583875,496.774734652481 345.71153779583875,497.91764389379466 358.03528855488287,497.91764389379466 358.03528855488287,498.38484447034295 361.8066664591202,498.38484447034295 361.8066664591202,499.85217157562124 367.0107280440408"/>
</g>
</svg>
